<svg width="307" height="404" viewBox="0 0 307 404" fill="none" xmlns="http://www.w3.org/2000/svg">
<circle cx="153.5" cy="250.5" r="153.5" fill="#DD6461"/>
<circle cx="200.5" cy="206.5" r="21.5" fill="#613433"/>
<circle cx="71.5" cy="228.5" r="21.5" fill="#613433"/>
<path d="M76.485 307.619C75.1455 299.991 76.4033 295.517 79.1321 292.679C81.9569 289.742 86.6777 288.193 93.1485 287.242C97.3592 286.623 102.1 286.279 107.291 285.903C110.062 285.702 112.961 285.491 115.977 285.225C124.57 284.466 133.942 283.258 143.412 280.496C152.738 277.776 161.29 273.802 169.032 269.832C171.802 268.411 174.45 267.001 176.991 265.648C181.608 263.19 185.869 260.921 189.85 259.127C196.03 256.341 201.13 254.903 205.354 255.607C209.408 256.282 213.006 259.008 216.041 265.518C218.144 270.03 218.695 275.196 218.594 280.398C218.241 298.645 216.408 312.049 210.262 322.226C204.164 332.324 193.658 339.492 175.324 344.839C138.476 355.586 100.552 346.175 81.3071 319.007C78.8929 315.599 77.2019 311.701 76.485 307.619Z" fill="#D9D9D9" stroke="#613433" stroke-width="3"/>
<path d="M216 287.5C161 273.625 90.1667 317.333 96 332.5C90.8 332.5 81.5 319.167 77.5 312.5C71.9 294.5 79.8333 289.333 84.5 289L105.5 286L136.5 282L153 277.5L185 262C190.5 258.667 202.9 252.9 208.5 256.5C214.1 260.1 217.5 268.5 218.5 272V287.5H216Z" fill="#613433"/>
<path d="M14.5 130.417L31.5 63L57.5 130.417L75 0.499997L151 97L151 29L199.5 77L254.561 130.417L1.72673 207.114L14.5 130.417Z" fill="url(#paint0_linear_0_1)"/>
<defs>
<linearGradient id="paint0_linear_0_1" x1="76.9236" y1="-0.0835189" x2="128.144" y2="168.766" gradientUnits="userSpaceOnUse">
<stop stop-color="#FF0000" stop-opacity="0.73"/>
<stop offset="1" stop-color="#FFFF00"/>
</linearGradient>
</defs>
</svg>
